<svg xmlns="http://www.w3.org/2000/svg" viewBox="1464.403 762.276 11.444 11.444"><defs><style>.a{fill:#fff;fill-rule:evenodd;}</style></defs><path class="a" d="M5.722,1.017a17.545,17.545,0,0,1,2.289.064,2.949,2.949,0,0,1,1.081.191,2.233,2.233,0,0,1,1.081,1.081,2.949,2.949,0,0,1,.191,1.081c0,.572.064.763.064,2.289a17.544,17.544,0,0,1-.064,2.289,2.949,2.949,0,0,1-.191,1.081,2.233,2.233,0,0,1-1.081,1.081,2.949,2.949,0,0,1-1.081.191c-.572,0-.763.064-2.289.064a17.544,17.544,0,0,1-2.289-.064,2.949,2.949,0,0,1-1.081-.191A2.233,2.233,0,0,1,1.272,9.091a2.949,2.949,0,0,1-.191-1.081c0-.572-.064-.763-.064-2.289a17.545,17.545,0,0,1,.064-2.289,2.949,2.949,0,0,1,.191-1.081,2.283,2.283,0,0,1,.445-.636,1.075,1.075,0,0,1,.636-.445,2.949,2.949,0,0,1,1.081-.191,17.545,17.545,0,0,1,2.289-.064M5.722,0A18.785,18.785,0,0,0,3.37.064a3.925,3.925,0,0,0-1.4.254A2.489,2.489,0,0,0,.954.954,2.489,2.489,0,0,0,.318,1.971a2.9,2.9,0,0,0-.254,1.4A18.785,18.785,0,0,0,0,5.722,18.785,18.785,0,0,0,.064,8.074a3.925,3.925,0,0,0,.254,1.4A2.489,2.489,0,0,0,.954,10.49a2.489,2.489,0,0,0,1.017.636,3.925,3.925,0,0,0,1.4.254,18.785,18.785,0,0,0,2.352.064,18.785,18.785,0,0,0,2.352-.064,3.925,3.925,0,0,0,1.4-.254,2.667,2.667,0,0,0,1.653-1.653,3.925,3.925,0,0,0,.254-1.4c0-.636.064-.826.064-2.352A18.785,18.785,0,0,0,11.38,3.37a3.925,3.925,0,0,0-.254-1.4A2.489,2.489,0,0,0,10.49.954,2.489,2.489,0,0,0,9.473.318a3.925,3.925,0,0,0-1.4-.254A18.785,18.785,0,0,0,5.722,0m0,2.8A2.877,2.877,0,0,0,2.8,5.722,2.925,2.925,0,1,0,5.722,2.8m0,4.832A1.873,1.873,0,0,1,3.815,5.722,1.873,1.873,0,0,1,5.722,3.815,1.873,1.873,0,0,1,7.629,5.722,1.873,1.873,0,0,1,5.722,7.629M8.774,1.971a.7.7,0,1,0,.7.7.706.706,0,0,0-.7-.7" transform="translate(1464.403 762.276)"/></svg>