<svg xmlns="http://www.w3.org/2000/svg" viewBox="1501.069 763.094 11.444 9.282"><defs><style>.a{fill:#fff;fill-rule:evenodd;}</style></defs><path class="a" d="M41.624,11.282A6.616,6.616,0,0,0,48.3,4.607V4.289a5.168,5.168,0,0,0,1.144-1.208,5.278,5.278,0,0,1-1.335.381,2.474,2.474,0,0,0,1.017-1.272,5.832,5.832,0,0,1-1.462.572A2.271,2.271,0,0,0,45.947,2a2.389,2.389,0,0,0-2.352,2.352,1.239,1.239,0,0,0,.064.509,6.573,6.573,0,0,1-4.832-2.479,2.435,2.435,0,0,0-.318,1.208A2.526,2.526,0,0,0,39.526,5.56a2.143,2.143,0,0,1-1.081-.318h0a2.324,2.324,0,0,0,1.907,2.289,1.96,1.96,0,0,1-.636.064,1.082,1.082,0,0,1-.445-.064A2.409,2.409,0,0,0,41.5,9.184,4.8,4.8,0,0,1,38.572,10.2,1.76,1.76,0,0,1,38,10.138a6,6,0,0,0,3.624,1.144" transform="translate(1463.069 761.094)"/></svg>